<svg width="1058" height="785" viewBox="0 0 1058 785" fill="none" xmlns="http://www.w3.org/2000/svg">
<g id="rideBike 1" clip-path="url(#clip0)">
<g id="background">
<path d="M206.73 115.43C201.25 122.08 199.14 131.43 196.78 140.22C177.78 211.06 130.96 268.04 77.64 308.74C55.06 325.98 27.57 349.1 32.51 380.01C35.17 396.61 46.84 408.83 55.51 422.35C73.7 450.66 79.6 489.14 70.93 523.03C61.07 561.59 33.51 597.57 42.04 636.56C47.3 660.56 65.16 677.64 82.33 692.32C109.117 715.207 136.757 736.647 165.25 756.64C184.35 770.04 204.67 783.08 226.93 784.78C246.53 786.28 265.73 778.83 284.34 771.48C300.6 765.05 317.27 758.36 330.4 745.48C338.97 737.07 345.8 726.22 355.32 719.34C377.68 703.18 406.4 713.42 432.04 720.34C492.54 736.58 557.29 730.65 614.86 703.6C703.17 662.1 770.48 574.95 856.86 528.19C894 508.08 934.4 495.6 968.79 469.7C988.165 454.953 1004.82 436.936 1017.99 416.46C1043.99 376.35 1058.05 325.21 1053.99 275.15C1049.93 225.09 1027.18 176.85 991.45 148.59C953.2 118.34 904.89 112.69 861.37 94.53C816.43 75.77 776.45 43.53 731.94 23.4C695.924 7.15668 656.728 -0.81713 617.228 0.0636446C577.728 0.944419 538.926 10.6574 503.67 28.49C455.23 52.99 406.13 110.15 352.18 114.49C313.74 117.49 236.75 79.01 206.73 115.43Z" fill="#38726C"/>
<path d="M206.73 115.43C201.25 122.08 199.14 131.43 196.78 140.22C177.78 211.06 130.96 268.04 77.64 308.74C55.06 325.98 27.57 349.1 32.51 380.01C35.17 396.61 46.84 408.83 55.51 422.35C73.7 450.66 79.6 489.14 70.93 523.03C61.07 561.59 33.51 597.57 42.04 636.56C47.3 660.56 65.16 677.64 82.33 692.32C109.117 715.207 136.757 736.647 165.25 756.64C184.35 770.04 204.67 783.08 226.93 784.78C246.53 786.28 265.73 778.83 284.34 771.48C300.6 765.05 317.27 758.36 330.4 745.48C338.97 737.07 345.8 726.22 355.32 719.34C377.68 703.18 406.4 713.42 432.04 720.34C492.54 736.58 557.29 730.65 614.86 703.6C703.17 662.1 770.48 574.95 856.86 528.19C894 508.08 934.4 495.6 968.79 469.7C988.165 454.953 1004.82 436.936 1017.99 416.46C1043.99 376.35 1058.05 325.21 1053.99 275.15C1049.93 225.09 1027.18 176.85 991.45 148.59C953.2 118.34 904.89 112.69 861.37 94.53C816.43 75.77 776.45 43.53 731.94 23.4C695.924 7.15668 656.728 -0.81713 617.228 0.0636446C577.728 0.944419 538.926 10.6574 503.67 28.49C455.23 52.99 406.13 110.15 352.18 114.49C313.74 117.49 236.75 79.01 206.73 115.43Z" fill="url(#paint0_linear)"/>
</g>
<g id="man-on-bike">
<path id="Vector" d="M682.13 505.432C671.758 505.426 661.428 506.744 651.39 509.352L614.52 395.552L614.04 394.072L617.18 393.152C624.58 376.882 604.85 374.442 604.85 374.442L603.19 375.002C592.76 372.002 574.69 370.412 555.94 369.672V346.952C555.987 334.492 558.239 322.138 562.59 310.462C563.12 309.032 563.59 307.692 563.95 306.412C564.03 306.152 564.11 305.892 564.18 305.642L564.31 305.172C564.4 304.842 564.5 304.502 564.58 304.172C564.66 303.842 564.7 303.712 564.75 303.472C564.8 303.232 564.87 303.002 564.92 302.772L564.99 302.442C565.07 302.102 565.14 301.772 565.21 301.442C565.21 301.302 565.26 301.162 565.29 301.022C565.32 300.882 565.4 300.462 565.45 300.182C565.5 299.902 565.51 299.802 565.54 299.612C565.57 299.422 565.61 299.192 565.64 298.992C565.67 298.792 565.64 298.732 565.69 298.602C565.74 298.472 565.76 298.112 565.79 297.872V297.682C565.79 297.392 565.86 297.102 565.88 296.822C565.9 296.542 565.88 296.572 565.88 296.442C565.88 296.312 565.88 296.032 565.88 295.832C565.88 295.632 565.88 295.632 565.88 295.532C565.88 295.432 565.88 295.112 565.88 294.902C565.88 294.692 565.88 294.482 565.88 294.282C565.88 294.082 565.88 294.122 565.88 294.042C565.88 293.962 565.88 293.712 565.88 293.552C565.88 293.392 565.88 293.342 565.88 293.252C565.88 293.162 565.88 293.012 565.88 292.892C565.88 292.772 565.88 292.642 565.88 292.522C565.88 292.402 565.88 292.282 565.88 292.162C565.88 292.042 565.88 291.952 565.88 291.852C565.494 287.984 565.44 284.09 565.72 280.212L567.12 262.692C571.241 261.431 575.083 259.395 578.44 256.692C578.44 256.692 579.33 230.562 582.01 209.882C583.734 197.018 582.179 183.927 577.488 171.826C572.797 159.724 565.124 149.004 555.18 140.662C553.38 139.172 551.51 137.742 549.56 136.412C549.93 134.998 550.21 133.562 550.4 132.112C551.291 130.478 552.358 128.946 553.58 127.542C555.26 125.882 557.58 124.932 559.5 123.542C563.69 120.412 565.5 115.312 566.7 110.432C569.16 100.432 569.87 89.5624 565.7 80.0424C561.53 70.5224 551.39 62.7524 540.36 63.2524C536.98 63.4024 533.68 64.2524 530.36 64.6424C521.58 65.5324 512.89 62.6424 504.08 62.1124C501.526 61.7991 498.934 62.1433 496.55 63.1124C494.761 64.0919 493.213 65.4585 492.02 67.1124C487.988 72.3307 485.222 78.4136 483.94 84.8824C482.86 89.7524 482.86 94.1624 476.83 94.8824C470.04 95.7324 448.25 91.1724 452.83 105.532C455.02 112.322 465.53 112.532 470.92 117.532C473.72 120.132 475.01 123.972 478.09 126.292L478.21 126.372C464.21 126.582 441.1 132.122 427.48 163.112C406.94 209.872 394.61 225.112 378.17 237.322C362.53 248.932 355.26 286.322 354.59 289.902C350.26 300.832 347.9 320.902 361.73 354.222C373.45 382.472 383.65 401.702 390.84 416.152L389.43 416.022C386.43 415.793 383.445 415.396 380.49 414.832C368.9 412.632 339.69 408.032 331.83 415.832C321.96 425.592 325.25 442.682 351.56 445.122C357.576 445.627 363.617 445.767 369.65 445.542V488.392L369.08 488.742C363.93 491.812 358.97 494.562 355.63 496.372L354.41 497.032C353.446 495.449 352.643 493.774 352.01 492.032L324.85 509.892L338.33 521.082L324.62 535.252C324.19 534.872 323.77 534.482 323.34 534.102C301.33 515.277 273.303 504.96 244.34 505.022C177.59 505.022 123.49 558.572 123.49 624.622C123.49 690.672 177.6 744.222 244.34 744.222C304.12 744.222 353.76 701.222 363.47 644.842C386.47 646.552 407.85 647.072 421.89 645.022V658.802H483.52V642.142L485.06 642.042C512.79 640.042 498.41 627.812 498.41 627.812C492.05 627.812 485.05 624.272 480.13 621.182C478.4 620.092 476.62 619.102 474.8 618.182C476.47 612.256 475.963 605.927 473.37 600.342L613.94 455.342L635.42 514.742L633.99 515.332C591.2 533.732 561.27 575.942 561.27 625.072C561.27 691.132 615.38 744.672 682.12 744.672C748.86 744.672 802.98 691.082 802.98 625.082C802.98 559.082 748.85 505.432 682.13 505.432ZM688.57 714.692L683.57 637.502C684.495 637.373 685.403 637.145 686.28 636.822L727.58 702.712C715.646 709.596 702.31 713.691 688.57 714.692V714.692ZM607.96 677.812L671.21 632.442L671.33 632.602L645.39 707.492C630.503 701.091 617.586 690.848 607.96 677.812V677.812ZM724.56 544.882L689.85 613.512C688.227 612.005 686.249 610.931 684.1 610.392L683.26 607.802L685.65 534.402C699.237 534.957 712.529 538.534 724.56 544.872V544.882ZM681.43 602.082L660.29 536.852C667.308 535.183 674.496 534.34 681.71 534.342H683.63L681.43 602.082ZM643.85 542.452C644.32 542.242 644.85 542.052 645.27 541.842L671.35 614.082C670.319 615.132 669.474 616.35 668.85 617.682L601.99 580.582C604.505 576.182 607.385 572 610.6 568.082L618.06 559.972C625.591 552.7 634.314 546.773 643.85 542.452ZM601.1 582.362L668.24 619.622C667.937 620.724 667.783 621.86 667.78 623.002C667.78 623.172 667.78 623.342 667.78 623.512L590.52 622.152C590.881 608.252 594.491 594.628 601.06 582.372L601.1 582.362ZM694.83 623.232L768.85 597.702C772.786 610.223 773.925 623.455 772.189 636.464C770.452 649.473 765.882 661.942 758.8 672.992L692.92 631.442C694.213 629.405 694.906 627.045 694.92 624.632C694.902 624.167 694.858 623.703 694.79 623.242L694.83 623.232ZM768.25 595.762L694.44 621.222C693.7 619.074 692.692 617.028 691.44 615.132L726.44 545.842C746.055 556.753 760.935 574.539 768.21 595.772L768.25 595.762ZM594.46 401.462L599.65 415.802L510.13 443.382L509.2 424.892L560.2 409.892C560.306 411.036 560.235 412.19 559.99 413.312C561.278 411.962 562.44 410.496 563.46 408.932L593.88 399.992L594.46 401.462ZM250.78 714.262L245.78 637.262C246.792 637.247 247.798 637.116 248.78 636.872L289.78 702.342C277.844 709.203 264.512 713.278 250.78 714.262V714.262ZM170.17 677.402L233.42 632.082L233.54 632.242L207.6 707.082C192.713 700.681 179.796 690.438 170.17 677.402V677.402ZM152.7 621.742C153.068 607.84 156.684 594.217 163.26 581.962L231.54 619.852C231.172 620.895 230.94 621.98 230.85 623.082L152.7 621.742ZM286.77 544.472L255.14 607.082L250.3 612.082C248.79 611.502 247.187 611.204 245.57 611.202H245.38L247.85 534.002C261.441 534.554 274.737 538.131 286.77 544.472V544.472ZM317.03 570.172C322.807 577.801 327.324 586.305 330.41 595.362L263.92 618.292L317.03 570.172ZM260.08 621.772L331.08 597.302C331.747 599.509 332.36 601.752 332.92 604.032C333.04 604.552 333.15 605.032 333.26 605.582C301.35 612.212 271.59 619.532 259.14 622.662L260.08 621.772ZM243.32 611.232C241.338 611.313 239.4 611.839 237.65 612.772L210.76 540.082C221.339 536.003 232.582 533.918 243.92 533.932C244.56 533.932 245.2 533.932 245.84 533.932L243.32 611.232ZM235.85 613.932C234.41 615.025 233.211 616.404 232.33 617.982L164.25 580.172C166.76 575.762 169.637 571.57 172.85 567.642L180.33 559.502C188.582 551.543 198.256 545.206 208.85 540.822L235.85 613.932ZM333.37 642.082C331.169 652.925 326.971 663.264 320.99 672.572L256.33 631.792C269.52 633.892 300.56 638.592 333.37 642.082ZM362.24 598.282C358.232 580.724 350.278 564.309 338.98 550.282L342.15 547.412L369.71 574.322V598.602C367.35 599.009 364.973 599.429 362.58 599.862C362.47 599.332 362.37 598.812 362.25 598.292L362.24 598.282ZM369.71 547.172L369.11 546.592L369.71 547.082V547.172ZM391.09 511.942L391.16 511.892L392.67 510.892L393.34 510.442L394.08 509.952L394.92 509.402L395.7 508.902L396.65 508.292L397.44 507.792L398.6 507.072L399.31 506.632L400.55 505.882C401.041 510.419 402.172 514.863 403.91 519.082L404.3 554.912C398.502 548.395 394.016 540.82 391.09 532.602V511.942ZM505.7 354.942C508.13 357.102 509.7 358.442 509.7 358.442C509.7 358.442 514.85 363.082 520.71 369.082C515.5 369.082 510.66 369.082 506.41 369.192L505.7 354.942ZM507.49 390.592C515.84 390.882 526.7 391.172 538.26 391.252C538.34 391.502 538.42 391.752 538.47 391.982C540.831 392.712 543.14 393.6 545.38 394.642L508.32 407.222L507.49 390.592ZM516.91 324.892C516.91 324.892 509.28 304.892 499.97 289.772C504.88 275.392 514.03 260.182 531.12 253.442L531 254.812L530.94 255.552C530.4 261.862 529.78 269.552 529.25 277.452V277.912C529.19 278.852 529.127 279.796 529.06 280.742V281.232L528.99 282.392L528.92 283.532L528.86 284.532C528.82 285.199 528.78 285.866 528.74 286.532V287.102C528.74 287.676 528.71 288.249 528.65 288.822V289.492C528.617 290.159 528.583 290.846 528.55 291.552V291.672C528.51 292.439 528.477 293.199 528.45 293.952V294.292C528.45 294.959 528.423 295.652 528.37 296.372V296.532C528.31 298.059 528.263 299.549 528.23 301.002V301.162C528.23 302.612 528.17 304.012 528.15 305.362V305.482C528.15 306.842 528.15 308.142 528.15 309.372C528.15 309.966 528.15 310.546 528.15 311.112V311.222C528.15 312.342 528.22 313.392 528.28 314.362V314.542C528.34 315.482 528.42 316.352 528.51 317.122V317.302C528.55 317.629 528.593 317.939 528.64 318.232V318.392C528.7 318.712 528.75 319.022 528.82 319.292V319.402C528.87 319.632 528.93 319.842 528.99 320.032L529.04 320.202C529.104 320.397 529.181 320.588 529.27 320.772C530.98 324.152 531.8 334.552 532.17 345.562C523.36 334.182 516.9 324.872 516.9 324.872L516.91 324.892ZM391.09 593.642V564.812L404.53 575.952L404.72 593.662C400.42 594.082 395.85 594.662 391.08 595.282L391.09 593.642ZM391.09 443.922C394.57 443.482 397.99 442.922 401.3 442.382C401.793 444.857 401.981 447.382 401.86 449.902V465.152H402.55C398.591 467.661 394.766 470.375 391.09 473.282V443.932V443.922ZM304.15 556.412L259.94 602.082L288.56 545.432C293.625 548.252 298.409 551.547 302.85 555.272C303.3 555.642 303.72 556.082 304.15 556.412ZM152.67 624.222C152.67 624.072 152.67 623.922 152.67 623.772L230.85 625.152C230.976 626.962 231.483 628.724 232.34 630.322L169.01 675.752C158.367 660.678 152.659 642.675 152.67 624.222V624.222ZM243.93 714.532C232.132 714.545 220.442 712.284 209.5 707.872L235.13 633.872C237.498 635.991 240.553 637.181 243.73 637.222L248.73 714.392C247.14 714.482 245.54 714.532 243.93 714.532ZM291.55 701.252L250.76 636.182C252.327 635.515 253.75 634.551 254.95 633.342L319.85 674.282C312.475 685.21 302.82 694.411 291.55 701.252V701.252ZM456.73 586.182C454.365 585.514 451.918 585.178 449.46 585.182H448.64H447.82C443.663 585.17 439.562 586.14 435.85 588.012C434.11 577.272 433.23 563.592 437.12 553.062C439.436 546.701 441.176 540.145 442.32 533.472L450.67 486.252L606.04 433.532L607.94 438.792L456.73 586.182ZM590.46 624.632C590.46 624.482 590.46 624.332 590.46 624.182L667.99 625.552C668.562 627.328 669.264 629.06 670.09 630.732L606.76 676.162C596.131 661.083 590.437 643.081 590.46 624.632V624.632ZM681.72 714.942C669.922 714.955 658.232 712.694 647.29 708.282L672.92 634.282C675.288 636.401 678.343 637.591 681.52 637.632L686.52 714.812C684.927 714.899 683.327 714.942 681.72 714.942V714.942ZM729.35 701.672L688.16 635.972C689.498 635.226 690.696 634.251 691.7 633.092L757.7 674.702C750.309 685.635 740.637 694.836 729.35 701.672V701.672Z" fill="url(#paint1_linear)"/>
<path id="Vector_2" d="M387 555.896L344.293 513.752L330.947 527.275L373.654 569.419L387 555.896Z" fill="#6A605C"/>
<path id="Vector_3" opacity="0.1" d="M387 555.896L344.293 513.752L330.947 527.275L373.654 569.419L387 555.896Z" fill="black"/>
<path id="Vector_4" d="M354.48 493.582C354.48 493.582 379.27 480.502 388.85 472.082C394.617 467.037 400.818 462.509 407.38 458.552L438.48 439.622L503.48 434.622L506.48 445.622C506.48 445.622 511.48 461.622 461.48 475.622C411.48 489.622 386.48 511.622 386.48 511.622C386.48 511.622 354.48 522.582 354.48 493.582Z" fill="#AE773F"/>
<path id="Vector_5" opacity="0.1" d="M389.13 509.452C387.36 510.802 386.48 511.582 386.48 511.582C386.48 511.582 354.48 522.582 354.48 493.582C354.48 493.582 356.03 492.762 358.48 491.392C360.955 495.423 364.423 498.752 368.551 501.061C372.679 503.37 377.33 504.583 382.06 504.582H385.45L389.13 509.452Z" fill="black"/>
<path id="Vector_6" opacity="0.05" d="M505.54 451.142C502.76 457.032 493.17 466.712 461.48 475.582C420.87 486.952 396.75 503.582 389.13 509.452C387.36 510.802 386.48 511.582 386.48 511.582C386.48 511.582 354.48 522.582 354.48 493.582C354.48 493.582 356.03 492.762 358.48 491.392C365.91 487.322 381.64 478.392 388.82 472.042C394.586 466.995 400.787 462.467 407.35 458.512L438.45 439.582L450.03 438.692L503.45 434.582L506.45 445.582C506.45 445.582 507.15 447.732 505.54 451.142Z" fill="black"/>
<path id="Vector_7" d="M354.98 487.082L328.48 504.582L406.08 569.582C406.08 569.582 417.48 562.582 411.48 554.582C411.48 554.582 391.48 537.582 390.48 513.582L384.48 505.582H381.09C375.358 505.583 369.767 503.804 365.089 500.49C360.412 497.176 356.88 492.491 354.98 487.082V487.082Z" fill="black"/>
<path id="Vector_8" opacity="0.1" d="M505.54 451.142C489.54 443.412 450.48 442.582 450.48 442.582L450.06 438.692L503.48 434.582L506.48 445.582C506.48 445.582 507.15 447.732 505.54 451.142Z" fill="black"/>
<path id="Vector_9" d="M450.48 440.582C450.48 440.582 497.48 441.582 509.48 451.582L503.48 330.582H438.48L450.48 440.582Z" fill="#111415"/>
<path id="Vector_10" opacity="0.05" d="M450.48 440.082C450.48 440.082 497.48 441.082 509.48 451.082L503.48 330.082H438.48L450.48 440.082Z" fill="black"/>
<path id="Vector_11" d="M488.24 366.542C488.24 366.542 605.89 362.542 608.29 377.752C610.69 392.962 490.64 386.552 490.64 386.552C490.64 386.552 481.04 376.942 488.24 366.542Z" fill="#0D1F2D"/>
<path id="Vector_12" opacity="0.05" d="M488.24 366.542C488.24 366.542 605.89 362.542 608.29 377.752C610.69 392.962 490.64 386.552 490.64 386.552C490.64 386.552 481.04 376.942 488.24 366.542Z" fill="black"/>
<path id="Vector_13" d="M393 427.372H372.19V608.252H393V427.372Z" fill="#38726C"/>
<path id="Vector_14" opacity="0.1" d="M393 427.362V441.292C386.08 442.192 379 442.762 372.19 442.982V427.362H393Z" fill="black"/>
<path id="Vector_15" d="M391.44 412.372C388.52 412.147 385.616 411.756 382.74 411.202C371.46 409.042 343.02 404.512 335.37 412.202C325.77 421.802 328.97 438.612 354.58 441.012C380.19 443.412 424.21 437.012 433.02 427.402C433.02 427.362 417.09 414.342 391.44 412.372Z" fill="#0D1F2D"/>
<path id="Vector_16" d="M387.4 476.992L605.9 408.962L613.1 425.772L389 502.602L387.4 476.992Z" fill="#38726C"/>
<path id="Vector_17" d="M452.23 584.242L609.9 428.972L618.7 441.772L468.23 598.642L452.23 584.242Z" fill="#38726C"/>
<path id="Vector_18" opacity="0.1" d="M653.58 531.442C648.584 532.734 643.712 534.464 639.02 536.612L629.46 509.902C634.477 507.715 639.644 505.887 644.92 504.432L653.58 531.442Z" fill="black"/>
<path id="Vector_19" d="M680.33 609.852L669.13 616.252L590.99 397.922L587.49 388.152L605.9 377.742L610.51 392.122L680.33 609.852Z" fill="#38726C"/>
<path id="Vector_20" opacity="0.1" d="M610.51 392.122L590.99 397.922L587.49 388.152L605.9 377.742L610.51 392.122Z" fill="black"/>
<path id="Vector_21" d="M491.44 408.962L601.09 371.342C601.09 371.342 620.3 373.742 613.09 389.752L502.65 422.562C502.65 422.562 485.85 424.162 491.44 408.962Z" fill="#0D1F2D"/>
<path id="Vector_22" opacity="0.1" d="M367.79 617.452C367.789 623.587 367.314 629.711 366.37 635.772C356.77 635.082 346.85 634.082 337.13 633.082C339.289 621.192 339.021 608.987 336.34 597.202C345.81 595.202 355.48 593.292 364.92 591.562C366.833 600.059 367.795 608.743 367.79 617.452V617.452Z" fill="black"/>
<path id="Vector_23" opacity="0.1" d="M393 586.972V608.242H372.19V590.242C379.39 588.992 386.39 587.882 393 586.972Z" fill="black"/>
<path id="Vector_24" d="M258.54 617.082C258.54 617.082 426.62 573.082 440.22 589.872C453.82 606.662 468.23 629.082 425.85 637.082C383.47 645.082 255.37 623.472 255.37 623.472L258.54 617.082Z" fill="#38726C"/>
<path id="Vector_25" opacity="0.1" d="M341.21 542.962L319.85 562.512C316.067 557.656 311.791 553.206 307.09 549.232L327.03 528.402C332.164 532.842 336.908 537.713 341.21 542.962V542.962Z" fill="black"/>
<path id="Vector_26" d="M252.94 608.252L378.59 476.992L382.6 507.402L259.34 620.252L252.94 608.252Z" fill="#38726C"/>
<path id="Vector_27" opacity="0.1" d="M251.34 629.862C258.415 629.862 264.15 624.127 264.15 617.052C264.15 609.978 258.415 604.242 251.34 604.242C244.265 604.242 238.53 609.978 238.53 617.052C238.53 624.127 244.265 629.862 251.34 629.862Z" fill="black"/>
<path id="Vector_28" d="M249.73 629.862C256.805 629.862 262.54 624.127 262.54 617.052C262.54 609.978 256.805 604.242 249.73 604.242C242.655 604.242 236.92 609.978 236.92 617.052C236.92 624.127 242.655 629.862 249.73 629.862Z" fill="#535461"/>
<path id="Vector_29" opacity="0.1" d="M675.13 628.662C682.205 628.662 687.94 622.927 687.94 615.852C687.94 608.778 682.205 603.042 675.13 603.042C668.055 603.042 662.32 608.778 662.32 615.852C662.32 622.927 668.055 628.662 675.13 628.662Z" fill="black"/>
<path id="Vector_30" d="M675.93 628.67C683.005 628.67 688.74 622.935 688.74 615.86C688.74 608.785 683.005 603.05 675.93 603.05C668.855 603.05 663.12 608.785 663.12 615.86C663.12 622.935 668.855 628.67 675.93 628.67Z" fill="#535461"/>
<path id="Vector_31" opacity="0.1" d="M448.22 629.862C462.364 629.862 473.83 618.396 473.83 604.252C473.83 590.108 462.364 578.642 448.22 578.642C434.076 578.642 422.61 590.108 422.61 604.252C422.61 618.396 434.076 629.862 448.22 629.862Z" fill="black"/>
<path id="Vector_32" d="M449.83 629.862C463.974 629.862 475.44 618.396 475.44 604.252C475.44 590.108 463.974 578.642 449.83 578.642C435.686 578.642 424.22 590.108 424.22 604.252C424.22 618.396 435.686 629.862 449.83 629.862Z" fill="#535461"/>
<path id="Vector_33" d="M442.992 602.328L442.984 602.334C439.977 604.584 439.362 608.845 441.611 611.853L461.937 639.033C464.186 642.04 468.448 642.655 471.455 640.406L471.463 640.4C474.471 638.151 475.085 633.89 472.836 630.882L452.51 603.702C450.261 600.694 446 600.079 442.992 602.328Z" fill="#6C63FF"/>
<path id="Vector_34" d="M565.48 248.582L563.1 278.692C562.826 282.506 562.876 286.337 563.25 290.142C563.56 293.512 563.25 299.412 559.95 308.412C555.713 319.909 553.523 332.06 553.48 344.312V378.582L530.48 374.582C530.48 374.582 531.48 326.582 527.48 318.582C523.48 310.582 530.48 239.582 530.48 239.582L565.48 248.582Z" fill="#AE773F"/>
<path id="Vector_35" opacity="0.05" d="M564.3 263.502L563.1 278.692C562.83 282.503 562.883 286.33 563.26 290.132C563.57 293.502 563.26 299.402 559.96 308.412C555.723 319.909 553.533 332.06 553.49 344.312V378.582L530.49 374.582C530.49 374.582 531.49 326.582 527.49 318.582C524.66 312.912 527.34 275.642 529.15 254.372C529.9 245.622 530.49 239.582 530.49 239.582L565.49 248.582L564.3 263.502Z" fill="black"/>
<path id="Vector_36" d="M451.5 478.582L442.85 527.782C441.759 534.351 440.086 540.81 437.85 547.082C432.78 560.942 436.02 580.372 438.48 590.972C439.57 595.652 440.48 598.612 440.48 598.612L414.48 612.612L406.48 606.612V602.612L405.48 513.612C399.48 499.612 401.48 478.612 405.48 470.612C406.617 467.984 407.417 465.222 407.86 462.392C409.86 451.672 410.48 436.612 410.48 436.612C410.48 436.612 426.48 409.612 445.48 427.612C452.48 434.242 455.14 442.912 455.7 451.212C456.68 465.422 451.5 478.582 451.5 478.582Z" fill="#AE773F"/>
<path id="Vector_37" opacity="0.1" d="M455.7 451.182C441.83 459.422 417.7 461.752 407.86 462.362C409.86 451.642 410.48 436.582 410.48 436.582C410.48 436.582 426.48 409.582 445.48 427.582C452.48 434.212 455.14 442.882 455.7 451.182Z" fill="black"/>
<path id="Vector_38" d="M489.48 426.582C478.846 432.245 468.797 438.944 459.48 446.582C443.48 459.582 403.48 460.582 403.48 460.582V445.582C404.48 427.582 387.48 407.582 364.48 351.582C349.79 315.822 353.86 295.582 358.72 285.582C361.48 279.932 364.48 277.582 364.48 277.582L489.48 301.582L493.95 314.982L503.48 343.582C503.48 343.582 468.48 345.582 462.48 348.582C456.48 351.582 460.48 378.582 460.48 378.582C454.48 406.582 489.48 426.582 489.48 426.582Z" fill="#111415"/>
<path id="Vector_39" opacity="0.1" d="M565.48 248.582L564.3 263.502C546.9 268.502 534.48 252.582 534.48 252.582C532.665 253.069 530.882 253.667 529.14 254.372C529.89 245.622 530.48 239.582 530.48 239.582L565.48 248.582Z" fill="black"/>
<path id="Vector_40" opacity="0.1" d="M493.95 314.982C493.48 319.652 493.48 322.582 493.48 322.582C493.48 322.582 470.48 341.582 431.48 312.582C392.48 283.582 357.48 291.582 357.48 291.582C357.48 291.582 357.89 289.262 358.72 285.582C361.48 279.932 364.48 277.582 364.48 277.582L489.48 301.582L493.95 314.982Z" fill="black"/>
<path id="Vector_41" d="M578.96 209.532C576.35 229.882 575.48 255.532 575.48 255.532C552.48 273.532 534.48 250.532 534.48 250.532C512.76 256.362 502.55 275.372 497.74 291.962C495.164 300.936 493.732 310.2 493.48 319.532C493.48 319.532 487.4 324.532 476.2 325.532C465.61 326.422 450.43 323.662 431.48 309.532C392.48 280.532 357.48 288.532 357.48 288.532C357.48 288.532 364.48 248.532 380.48 236.532C396.48 224.532 408.48 209.532 428.48 163.532C448.48 117.532 489.48 128.532 489.48 128.532C489.48 128.532 491.48 119.532 528.48 128.532C537.492 130.894 545.834 135.313 552.85 141.442C572.64 158.082 582.24 183.892 578.96 209.532Z" fill="white"/>
<path id="Vector_42" d="M541.85 151.082C541.8 152.412 541.69 153.892 541.51 155.542C539.51 173.542 537.51 171.542 515.51 175.542C501.83 178.032 494.72 166.602 491.3 157.602C490.062 154.342 489.128 150.975 488.51 147.542L536.51 139.542C536.51 139.542 542.26 137.932 541.85 151.082Z" fill="#AE773F"/>
<path id="Vector_43" opacity="0.05" d="M497.74 292.012C495.164 300.986 493.732 310.25 493.48 319.582C493.48 319.582 487.4 324.582 476.2 325.582C475.884 324.945 475.643 324.274 475.48 323.582C473.48 314.582 458.48 298.582 458.48 298.582C448.48 289.582 446.48 273.582 446.48 273.582L429.98 225.082L424.48 220.582C424.48 220.582 447.48 202.582 467.48 217.582C487.48 232.582 481.48 264.582 481.48 264.582L485.48 275.582C489.63 279.082 493.85 285.252 497.74 292.012Z" fill="black"/>
<path id="Vector_44" d="M427 228.969L449 281.969C449 281.969 451 297.969 461 306.969C461 306.969 476 322.969 478 331.969C480 340.969 508 364.969 508 364.969C508 364.969 534 388.969 536 397.969C536 397.969 560 404.969 557 418.969C557 418.969 575 400.969 557 383.969C539 366.969 515 331.969 515 331.969C515 331.969 501 294.969 488 283.969L484 272.969C484 272.969 490 240.969 470 225.969C450 210.969 427 228.969 427 228.969Z" fill="#AE773F"/>
<path id="Vector_45" opacity="0.1" d="M440.48 598.582L414.48 612.582L406.48 606.582V602.582C415.464 601.944 424.193 599.31 432.03 594.872C434.43 593.512 436.69 592.172 438.5 590.992C439.55 595.622 440.48 598.582 440.48 598.582Z" fill="black"/>
<path id="Vector_46" opacity="0.1" d="M470.48 177.582L484.48 232.582C484.48 232.582 441.48 239.582 432.48 232.582C423.48 225.582 406.48 223.582 406.48 223.582C406.48 223.582 424.48 171.582 434.48 165.582C444.48 159.582 470.48 177.582 470.48 177.582Z" fill="black"/>
<path id="Vector_47" d="M470.48 175.582L484.48 230.582C484.48 230.582 441.48 237.582 432.48 230.582C423.48 223.582 406.48 221.582 406.48 221.582C406.48 221.582 424.48 169.582 434.48 163.582C444.48 157.582 470.48 175.582 470.48 175.582Z" fill="white"/>
<path id="Vector_48" opacity="0.1" d="M541.85 150.082C539.049 153.949 535.487 157.201 531.383 159.639C527.278 162.078 522.718 163.651 517.983 164.261C513.248 164.872 508.439 164.508 503.85 163.191C499.261 161.873 494.99 159.631 491.3 156.602C490.062 153.342 489.128 149.975 488.51 146.542L536.51 138.542C536.51 138.542 542.26 136.932 541.85 150.082Z" fill="black"/>
<path id="Vector_49" d="M548.48 128.582C548.48 137.865 544.793 146.767 538.229 153.331C531.665 159.895 522.763 163.582 513.48 163.582C504.197 163.582 495.295 159.895 488.731 153.331C482.168 146.767 478.48 137.865 478.48 128.582C478.48 128.002 478.48 127.422 478.48 126.842C478.711 117.56 482.62 108.749 489.346 102.349C496.073 95.9479 505.067 92.4817 514.35 92.7124C523.633 92.9432 532.443 96.8519 538.844 103.579C545.245 110.306 548.711 119.3 548.48 128.582V128.582Z" fill="#AE773F"/>
<path id="Vector_50" opacity="0.1" d="M548.48 128.582C548.483 131.808 548.039 135.019 547.16 138.122C544.455 138.712 541.633 138.454 539.08 137.382C535.34 135.912 532.13 133.382 528.54 131.562C518.43 126.442 506.4 127.452 495.2 129.142C489.64 129.982 483.33 130.762 478.96 127.222C478.81 127.104 478.666 126.977 478.53 126.842C478.761 117.56 482.67 108.749 489.396 102.349C496.123 95.9479 505.117 92.4817 514.4 92.7124C523.683 92.9432 532.493 96.8519 538.894 103.579C545.295 110.306 548.761 119.3 548.53 128.582H548.48Z" fill="black"/>
<path id="Vector_51" opacity="0.05" d="M384.98 236.082C384.98 236.082 410.98 243.082 418.98 261.082C426.98 279.082 448.62 282.372 448.62 282.372" fill="black"/>
<path id="Vector_52" d="M482.98 632.082H422.98V651.082H482.98V632.082Z" fill="#6A605C"/>
<path id="Vector_53" opacity="0.1" d="M482.98 632.082H422.98V651.082H482.98V632.082Z" fill="black"/>
<path id="Vector_54" d="M431.99 596.822C437.36 593.822 442.07 590.822 442.48 589.582C442.48 589.582 456.03 603.882 468.1 608.322C472.159 609.822 476.044 611.753 479.69 614.082C484.47 617.082 491.29 620.612 497.48 620.612C497.48 620.612 511.48 632.612 484.48 634.612C457.48 636.612 394.48 629.612 394.48 629.612L398.48 604.612C410.167 605.298 421.804 602.593 431.99 596.822Z" fill="black"/>
</g>
<g id="right-wheel">
<path id="Vector_55" d="M681.42 717.39L675.16 619.49L675.03 619.28L668.71 621.48L639.62 706.29L593.37 673.49L667.06 620.08L667.13 619.87L667.55 619.72L672.3 616.27L595.06 572.96L576.13 593.76L579.13 613.26L667.93 614.84V616.84L577.45 615.22L574.05 593.11L599.94 564.66L638.66 519.49L639.35 521.36L647.55 512.36L678.09 517.83V516.62L680.09 516.68V518.19L725.45 526.31L683.12 610.96L676.95 615.43V615.93V616.49L774.76 582.41L763.15 673.62L680.15 620.75L677.23 619.11L726.17 698L681.42 717.39ZM677.42 623.05L683.27 714.43L723.32 697.05L677.42 623.05ZM596.85 673.49L638.64 703.12L665.98 623.38L596.85 673.49ZM679.17 617.83L681.26 619L761.61 670.2L772.41 585.33L679.17 617.83ZM672.07 610.63L674.58 614.68L675.02 614.36L678.02 519.83L648.28 514.49L640.12 523.49L672.07 610.63ZM596.68 571.58L671.52 613.58L670.22 611.45L638.64 525.18L601.44 566.06L596.68 571.58ZM680.05 520.19L677.05 612.88L681.57 609.6L722.48 527.78L680.05 520.19Z" fill="#535461"/>
<path id="Vector_56" d="M676.33 498.61C665.717 498.598 655.15 500.024 644.92 502.85C639.644 504.305 634.477 506.133 629.46 508.32C602.73 519.907 581.247 540.997 569.167 567.508C557.087 594.019 555.269 624.069 564.065 651.843C572.86 679.618 591.644 703.143 616.782 717.869C641.921 732.594 671.627 737.473 700.155 731.562C728.682 725.65 754.004 709.369 771.221 685.867C788.438 662.365 796.327 633.312 793.362 604.33C790.396 575.348 776.787 548.495 755.168 528.966C733.548 509.438 705.454 498.622 676.32 498.61H676.33ZM675.93 704.7C655.649 704.692 635.981 697.746 620.192 685.017C604.404 672.288 593.445 654.541 589.135 634.723C584.825 614.905 587.424 594.209 596.501 576.073C605.577 557.936 620.584 543.45 639.03 535.02C643.722 532.872 648.594 531.142 653.59 529.85C665.802 526.68 678.549 526.147 690.984 528.287C703.418 530.427 715.253 535.191 725.703 542.261C736.153 549.332 744.977 558.547 751.588 569.293C758.199 580.039 762.446 592.069 764.046 604.585C765.646 617.1 764.562 629.812 760.866 641.875C757.17 653.939 750.948 665.077 742.613 674.548C734.277 684.02 724.02 691.608 712.524 696.806C701.028 702.005 688.557 704.696 675.94 704.7H675.93Z" fill="#0D1F2D"/>
</g>
<g id="left-wheel">
<path id="Vector_57" d="M255.23 716.99L248.96 619.05L248.83 618.84L242.51 621.04L213.43 705.89L167.18 673.1L240.85 619.69L240.92 619.48L241.34 619.33L246.09 615.88L168.85 572.57L149.93 593.37L152.93 612.87L241.75 614.49V616.49L151.27 614.87L147.85 592.73L173.75 564.27L212.5 519.07L213.19 520.94L221.39 511.94L251.85 517.4V516.19L253.85 516.25V517.76L299.21 525.88L256.92 610.49L250.75 614.96V615.46V616.02L348.55 581.94L336.94 673.15L253.94 620.28L251.02 618.64L299.96 697.52L255.23 716.99ZM251.23 622.65L257.08 714.03L297.13 696.65L251.23 622.65ZM170.65 673.08L212.44 702.71L239.78 622.97L170.65 673.08ZM252.97 617.42L255.06 618.59L335.41 669.79L346.21 584.92L252.97 617.42ZM245.87 610.22L248.38 614.27L248.82 613.95L251.82 519.42L222.08 514.1L213.92 523.1L245.87 610.22ZM170.45 571.16L245.29 613.16L243.99 611.03L212.41 524.76L175.22 565.63L170.45 571.16ZM253.85 519.77L250.85 612.49L255.37 609.21L296.28 527.39L253.85 519.77Z" fill="#535461"/>
<path id="Vector_58" d="M364.92 589.95C360.909 572.131 352.79 555.495 341.21 541.37C336.911 536.121 332.171 531.25 327.04 526.81C307.314 509.779 282.491 499.779 256.467 498.381C230.443 496.983 204.692 504.265 183.254 519.085C161.816 533.904 145.906 555.422 138.02 580.262C130.134 605.102 130.719 631.857 139.683 656.328C148.647 680.799 165.482 701.601 187.547 715.47C209.612 729.339 235.657 735.488 261.595 732.954C287.533 730.42 311.895 719.345 330.858 701.468C349.822 683.591 362.312 659.923 366.37 634.18C367.314 628.119 367.789 621.994 367.79 615.86C367.797 607.144 366.834 598.454 364.92 589.95ZM249.73 704.3C231.498 704.281 213.714 698.647 198.797 688.164C183.879 677.682 172.552 662.859 166.356 645.712C160.16 628.565 159.395 609.926 164.165 592.329C168.935 574.732 179.009 559.031 193.018 547.361C207.026 535.692 224.288 528.619 242.457 527.106C260.627 525.593 278.821 529.712 294.567 538.904C310.312 548.096 322.845 561.914 330.46 578.48C338.076 595.045 340.405 613.554 337.13 631.49C333.38 651.933 322.58 670.414 306.611 683.718C290.642 697.021 270.514 704.304 249.73 704.3V704.3Z" fill="#0D1F2D"/>
</g>
<path id="hat" d="M454.624 107.927C456.754 114.607 466.984 114.817 472.234 119.737C474.964 122.297 476.234 126.077 479.234 128.357C483.404 131.537 489.424 130.837 494.734 130.077C505.424 128.557 516.904 127.647 526.544 132.257C529.964 133.887 533.034 136.167 536.604 137.497C540.174 138.827 544.604 138.987 547.504 136.627C549.824 134.737 550.674 131.627 552.774 129.547C554.404 127.907 556.674 126.987 558.534 125.547C562.614 122.467 564.374 117.447 565.534 112.647C567.934 102.767 568.624 92.1167 564.534 82.7467C560.444 73.3767 550.604 65.7467 539.864 66.2367C536.574 66.3867 533.364 67.2367 530.084 67.5967C521.534 68.4667 513.084 65.5967 504.504 65.1067C502.015 64.8039 499.49 65.1483 497.174 66.1067C495.427 67.0775 493.92 68.4273 492.764 70.0567C488.836 75.2021 486.146 81.1836 484.904 87.5367C483.904 92.3267 483.854 96.6667 477.984 97.4067C471.314 98.2867 450.114 93.7967 454.624 107.927Z" fill="#07181A"/>
</g>
<defs>
<linearGradient id="paint0_linear" x1="794" y1="64" x2="105" y2="707" gradientUnits="userSpaceOnUse">
<stop stop-color="#38726C"/>
<stop offset="0.986144" stop-color="#BCD6D3"/>
</linearGradient>
<linearGradient id="paint1_linear" x1="463.23" y1="744.642" x2="463.23" y2="62.0824" gradientUnits="userSpaceOnUse">
<stop stop-color="#808080" stop-opacity="0.25"/>
<stop offset="0.54" stop-color="#808080" stop-opacity="0.12"/>
<stop offset="1" stop-color="#808080" stop-opacity="0.1"/>
</linearGradient>
<clipPath id="clip0">
<rect width="1057.7" height="784.98" fill="white"/>
</clipPath>
</defs>
</svg>
